<svg width="140" height="66" viewBox="0 0 140 66" fill="none" xmlns="http://www.w3.org/2000/svg">
<path d="M75.2644 34.775C74.5854 33.1778 73.0034 32.333 70.6934 32.333H64.1484L58.3594 47.909H65.1704C69.4754 47.909 73.1224 45.0314 74.9144 40.2068C75.7334 37.9826 75.8524 36.1544 75.2644 34.775ZM68.8594 35.7914C70.2804 35.7914 71.1694 36.1676 71.4844 36.92C71.7784 37.5998 71.6454 38.669 71.0854 40.1804C70.0914 42.8468 68.1804 44.444 65.9614 44.444H63.4764L66.6894 35.798H68.8594V35.7914ZM79.9404 41.5202L78.8554 44.444H86.8494L85.5614 47.909H73.7384L79.5274 32.333H91.1824L89.8944 35.798H82.0684L81.1514 38.2664H88.3334L87.1224 41.5202H79.9404ZM103.95 34.2008C103.418 32.96 102.165 32.333 100.226 32.333H93.3874L87.5984 47.909H91.4274L93.4084 42.5828H96.6774C98.4344 42.5828 99.9884 42.068 101.297 41.0582C102.403 40.2002 103.292 38.9792 103.803 37.6196C104.293 36.3062 104.342 35.1248 103.95 34.2008ZM96.0124 35.5868H98.3924C98.8054 35.5868 100.065 35.5868 100.324 36.2006C100.422 36.4316 100.38 36.8012 100.205 37.283C99.5404 39.0782 98.0774 39.3158 96.7404 39.3158H94.6264L96.0124 35.5868ZM114.163 31.9766C109.711 31.9766 105.525 35.204 103.74 40.0154C102.956 42.1142 102.872 44.081 103.502 45.5462C104.034 46.787 105.308 48.2588 108.381 48.2588C110.614 48.2588 112.798 47.4668 114.702 45.962C116.501 44.543 117.936 42.5498 118.755 40.3454C119.574 38.1476 119.665 36.1808 119.021 34.676C118.265 32.9138 116.585 31.9766 114.163 31.9766ZM115.045 40.0154C114.184 42.3254 112.252 44.8004 109.396 44.8004C108.262 44.8004 107.492 44.3978 107.163 43.6454C106.834 42.8798 106.932 41.7116 107.443 40.352C107.87 39.2036 109.543 35.4416 113.141 35.4416C114.289 35.4416 115.031 35.8244 115.36 36.59C115.689 37.3688 115.577 38.5832 115.045 40.0154ZM134.512 32.333L133.224 35.798H128.779L124.278 47.909H120.449L124.95 35.798H120.505L121.793 32.333H134.512Z" fill="#F42534"/>
<path d="M60.6034 32.1562H3.13337L1.85938 35.5948H59.3294L60.6034 32.1562Z" fill="#F42534"/>
<path d="M10.9065 28.3089C6.23748 28.3089 4.29148 26.0517 3.48648 24.1509C2.52048 21.8937 2.64648 18.8907 3.84348 15.6831C6.54548 8.41646 12.8735 3.53906 19.5865 3.53906C22.8415 3.53906 25.2495 4.76666 26.3485 6.99086C27.0975 8.50226 27.2095 10.4097 26.6635 12.5217L26.5445 12.9903H20.7625L20.9795 12.0531C21.1125 11.4657 21.0635 10.9311 20.8325 10.4757C20.3845 9.61106 19.3485 9.08966 18.0535 9.08966C12.7335 9.08966 10.2555 14.6469 9.62548 16.3497C8.89048 18.3297 8.74348 20.0193 9.20548 21.1083C9.66748 22.1841 10.7875 22.7583 12.4395 22.7583C15.0715 22.7583 17.4375 21.0489 18.9215 18.0723L19.0755 17.7687H25.0045L24.4935 18.8775C21.8475 24.6063 16.5135 28.3089 10.9065 28.3089ZM44.3805 4.06706L44.4085 27.7809H38.2975L38.4585 22.8177H30.8915L27.3075 27.7809H20.8745L38.6615 4.06706H44.3805ZM34.5665 17.7291H38.5915L38.7595 11.9541L34.5665 17.7291ZM67.6415 17.6367C68.0475 18.7323 67.9635 20.1777 67.3965 22.0719C67.3265 22.3029 67.2425 22.5603 67.1515 22.8375C66.7875 23.9463 66.1155 26.0121 66.3605 26.7645L66.6895 27.7809H60.5365L60.5015 27.1143C60.4455 25.9989 60.8375 24.6657 61.2505 23.2599C61.4255 22.6659 61.6075 22.0521 61.7335 21.5043C61.9295 20.6265 61.9505 20.0457 61.7825 19.7289C61.5585 19.2933 60.8795 19.0689 59.7595 19.0689H55.1815L51.9475 27.7743H45.9205L54.7405 4.06706H67.0255C69.3705 4.06706 71.0645 5.01086 71.7995 6.72686C72.3455 8.00066 72.3105 9.61766 71.6945 11.2677C70.7705 13.7493 69.2165 15.5577 67.0535 16.6665C67.3055 16.9305 67.5015 17.2539 67.6415 17.6367ZM58.8215 9.30746L57.0225 14.1453H61.5375C63.6235 14.1453 64.9255 13.2543 65.6325 11.3469C65.7655 10.9839 65.9685 10.3305 65.8215 9.97406C65.7375 9.77606 65.3735 9.30746 63.8685 9.30746H58.8215ZM90.1395 17.4849C88.1655 19.0161 85.8135 19.7883 83.1535 19.7883H78.3235L75.3555 27.7743H69.3285L78.1415 4.06046H88.4665C91.4205 4.06046 93.3385 5.03066 94.1575 6.94466C94.7735 8.39006 94.7035 10.2249 93.9475 12.2577C93.1635 14.3565 91.8545 16.1649 90.1395 17.4849ZM82.2225 9.30746L80.2765 14.5545H83.2375C86.7515 14.5545 87.7805 13.0629 88.3265 11.5977C88.4945 11.1357 88.6695 10.5153 88.5155 10.1457C88.2775 9.59126 87.3395 9.30746 85.7225 9.30746H82.2225ZM114.905 9.61766L116.97 4.06706H99.2115L90.3985 27.7809H108.409L110.474 22.2303H98.4905L99.9885 18.2043H110.754L112.7 12.9639H101.934L103.173 9.62426H114.905V9.61766ZM118.874 4.06706L116.809 9.61766H123.466L116.718 27.7809H122.745L129.493 9.61766H136.15L138.215 4.06706H118.874Z" fill="#F42534"/>
<path d="M128.631 47.1188H127.945V46.6172H129.828V47.1188H129.142V49.2374H128.638V47.1188H128.631Z" fill="#746661"/>
<path d="M131.844 46.6172H132.586V49.2374H132.096V47.1386H132.089L131.501 49.2374H131.081L130.493 47.1386H130.486V49.2374H129.996V46.6172H130.738L131.291 48.5048L131.844 46.6172Z" fill="#746661"/>
<path d="M8.58144 60.7057H6.81044V62.7781H5.64844V57.8281H6.81744V59.5969H8.58844V57.8281H9.75744V62.7781H8.58844V60.7057H8.58144Z" fill="#746661"/>
<path d="M11.6822 57.8281H13.1102L14.6152 62.7781H13.3622L13.1522 61.9729H11.6192L11.4092 62.7781H10.1562L11.6822 57.8281ZM12.3963 59.0755H12.3892L11.9062 60.9499H12.8863L12.3963 59.0755Z" fill="#746661"/>
<path d="M15.0265 57.8281H17.8335C18.6945 57.8281 19.0025 58.3825 19.0025 59.2075C19.0025 59.8675 18.7575 60.2239 18.4425 60.3361V60.3493C18.6665 60.4549 18.8345 60.7057 18.8625 61.2337C18.9185 62.2105 18.9395 62.5207 19.0865 62.7715H17.8055C17.7425 62.5537 17.7355 62.2633 17.7355 62.0389C17.7355 61.2601 17.5535 61.1215 17.2595 61.1215H16.1885V62.7715H15.0195V57.8281H15.0265ZM16.1955 60.0193H17.3155C17.6025 60.0193 17.7495 59.8081 17.7495 59.4715C17.7495 59.1481 17.5955 58.9369 17.3155 58.9369H16.1955V60.0193Z" fill="#746661"/>
<path d="M19.7656 57.8281H22.2996C23.3846 57.8281 23.9656 58.6531 23.9656 60.3031C23.9656 62.2501 23.1536 62.7781 22.1456 62.7781H19.7656V57.8281ZM20.9276 61.6693H21.9076C22.5726 61.6693 22.7546 60.9763 22.7546 60.2965C22.7546 59.3725 22.4326 58.9369 21.8096 58.9369H20.9276V61.6693Z" fill="#746661"/>
<path d="M24.332 57.8281H25.459L26.005 61.1677H26.012L26.642 57.8281H27.636L28.266 61.1677H28.273L28.819 57.8281H29.96L28.91 62.7781H27.755L27.146 59.5573H27.139L26.53 62.7781H25.375L24.332 57.8281Z" fill="#746661"/>
<path d="M32.5086 57.6758C33.7476 57.6758 34.7906 58.25 34.7906 60.3026C34.7906 62.3552 33.7476 62.9294 32.5086 62.9294C31.2696 62.9294 30.2266 62.3552 30.2266 60.3026C30.2336 58.25 31.2766 57.6758 32.5086 57.6758ZM32.5086 61.8206C33.1386 61.8206 33.5516 61.3454 33.5516 60.3026C33.5516 59.2664 33.1316 58.7846 32.5086 58.7846C31.8856 58.7846 31.4656 59.273 31.4656 60.3026C31.4656 61.3454 31.8856 61.8206 32.5086 61.8206Z" fill="#746661"/>
<path d="M37.6101 57.6758C38.8491 57.6758 39.8921 58.25 39.8921 60.3026C39.8921 62.3552 38.8491 62.9294 37.6101 62.9294C36.3711 62.9294 35.3281 62.3552 35.3281 60.3026C35.3281 58.25 36.3711 57.6758 37.6101 57.6758ZM37.6101 61.8206C38.2401 61.8206 38.6531 61.3454 38.6531 60.3026C38.6531 59.2664 38.2331 58.7846 37.6101 58.7846C36.9871 58.7846 36.5671 59.273 36.5671 60.3026C36.5671 61.3454 36.9871 61.8206 37.6101 61.8206Z" fill="#746661"/>
<path d="M40.6133 57.8281H43.1473C44.2323 57.8281 44.8133 58.6531 44.8133 60.3031C44.8133 62.2501 44.0013 62.7781 42.9933 62.7781H40.6133V57.8281ZM41.7753 61.6693H42.7483C43.4133 61.6693 43.5953 60.9763 43.5953 60.2965C43.5953 59.3725 43.2733 58.9369 42.6503 58.9369H41.7683V61.6693H41.7753Z" fill="#746661"/>
<path d="M47.0155 59.4648C47.4355 59.4648 47.7715 59.94 47.7715 60.534C47.7715 61.1214 47.4355 61.59 47.0225 61.59C46.6025 61.59 46.2735 61.1148 46.2735 60.5274C46.2665 59.94 46.6025 59.4648 47.0155 59.4648Z" fill="#746661"/>
<path d="M49.6523 57.8281H50.8213V61.6297H52.9563V62.7781H49.6593V57.8281H49.6523Z" fill="#746661"/>
<path d="M54.6002 57.8281H56.0282L57.5332 62.7781H56.2802L56.0702 61.9729H54.5372L54.3272 62.7781H53.0742L54.6002 57.8281ZM55.3142 59.0755H55.3072L54.8242 60.9499H55.8042L55.3142 59.0755Z" fill="#746661"/>
<path d="M57.9453 57.8281H59.6533L60.4513 61.0951H60.4583L61.2563 57.8281H62.9643V62.7781H61.8653V59.0755H61.8583L60.9343 62.7781H59.9753L59.0513 59.0755H59.0443V62.7781H57.9453V57.8281Z" fill="#746661"/>
<path d="M63.8867 57.8281H65.0557V62.7781H63.8867V57.8281Z" fill="#746661"/>
<path d="M65.9688 57.8281H67.3127L68.9367 60.9301H68.9437V57.8281H70.0707V62.7781H68.7827L67.1027 59.6497H67.0957V62.7781H65.9688V57.8281Z" fill="#746661"/>
<path d="M72.0104 57.8281H73.4384L74.9434 62.7781H73.6904L73.4804 61.9729H71.9474L71.7374 62.7781H70.4844L72.0104 57.8281ZM72.7174 59.0755H72.7104L72.2274 60.9499H73.2074L72.7174 59.0755Z" fill="#746661"/>
<path d="M74.7257 57.8281H78.4637V58.9369H77.1757V62.7781H76.0068V58.9369H74.7188V57.8281H74.7257Z" fill="#746661"/>
<path d="M79 57.8281H82.507V58.8973H80.169V59.7949H82.36V60.8179H80.169V61.7089H82.507V62.7781H79V57.8281Z" fill="#746661"/>
<path d="M84.8945 59.4648C85.3145 59.4648 85.6505 59.94 85.6505 60.534C85.6505 61.1214 85.3145 61.59 84.9015 61.59C84.4815 61.59 84.1525 61.1148 84.1525 60.5274C84.1455 59.94 84.4815 59.4648 84.8945 59.4648Z" fill="#746661"/>
<path d="M87.3945 57.8281H88.5635V61.6297H90.6985V62.7781H87.4015V57.8281H87.3945Z" fill="#746661"/>
<path d="M91.2734 57.8281H92.4424V60.7585C92.4424 61.5637 92.7084 61.8211 93.2404 61.8211C93.7724 61.8211 94.0384 61.5637 94.0384 60.7585V57.8281H95.2074V61.0291C95.2074 62.3953 94.4794 62.9299 93.2404 62.9299C92.0014 62.9299 91.2734 62.3953 91.2734 61.0291V57.8281Z" fill="#746661"/>
<path d="M97.1167 60.2119L95.7587 57.8359H97.1447L97.7887 59.1691L98.4327 57.8359H99.8187L98.4607 60.2119L99.9797 62.7859H98.5307L97.7887 61.2877L97.0467 62.7859H95.5977L97.1167 60.2119Z" fill="#746661"/>
<path d="M100.379 57.8281H101.548V60.7585C101.548 61.5637 101.814 61.8211 102.346 61.8211C102.878 61.8211 103.144 61.5637 103.144 60.7585V57.8281H104.313V61.0291C104.313 62.3953 103.585 62.9299 102.346 62.9299C101.107 62.9299 100.379 62.3953 100.379 61.0291V57.8281Z" fill="#746661"/>
<path d="M105.167 57.8281H107.974C108.835 57.8281 109.143 58.3825 109.143 59.2075C109.143 59.8675 108.898 60.2239 108.583 60.3361V60.3493C108.807 60.4549 108.975 60.7057 109.003 61.2337C109.059 62.2105 109.08 62.5207 109.227 62.7715H107.946C107.883 62.5537 107.876 62.2633 107.876 62.0389C107.876 61.2601 107.694 61.1215 107.4 61.1215H106.329V62.7715H105.16V57.8281H105.167ZM106.336 60.0193H107.456C107.743 60.0193 107.89 59.8081 107.89 59.4715C107.89 59.1481 107.736 58.9369 107.456 58.9369H106.336V60.0193Z" fill="#746661"/>
<path d="M110.964 61.2205L109.41 57.8281H110.761L111.545 59.9269L112.329 57.8281H113.68L112.126 61.2205V62.7781H110.957V61.2205H110.964Z" fill="#746661"/>
<path d="M115.164 57.8281H116.445L117.341 61.3591H117.348L118.244 57.8281H119.525L117.964 62.7781H116.725L115.164 57.8281Z" fill="#746661"/>
<path d="M119.902 57.8281H121.071V62.7781H119.902V57.8281Z" fill="#746661"/>
<path d="M121.988 57.8281H123.332L124.956 60.9301H124.963V57.8281H126.09V62.7781H124.802L123.122 59.6497H123.115V62.7781H121.988V57.8281Z" fill="#746661"/>
<path d="M128.05 61.2205L126.496 57.8281H127.847L128.631 59.9269L129.415 57.8281H130.766L129.212 61.2205V62.7781H128.043V61.2205H128.05Z" fill="#746661"/>
<path d="M131.18 57.8281H132.349V61.6297H134.484V62.7781H131.18V57.8281Z" fill="#746661"/>
</svg>
