<svg width="48" height="48" viewBox="0 0 48 48" fill="none" xmlns="http://www.w3.org/2000/svg">
<rect width="48" height="48" rx="24" fill="#F42534"/>
<g clip-path="url(#clip0_528_46893)">
<path d="M24.0011 14.0352C21.796 14.0376 19.682 14.9146 18.1227 16.4737C16.5634 18.0328 15.6862 20.1468 15.6836 22.3518C15.6836 24.4935 17.3419 27.8452 20.6128 32.3135C21.0021 32.8469 21.512 33.2809 22.1008 33.5801C22.6895 33.8793 23.3407 34.0352 24.0011 34.0352C24.6615 34.0352 25.3126 33.8793 25.9014 33.5801C26.4902 33.2809 27 32.8469 27.3894 32.3135C30.6603 27.8452 32.3186 24.4935 32.3186 22.3518C32.3159 20.1468 31.4388 18.0328 29.8795 16.4737C28.3202 14.9146 26.2061 14.0376 24.0011 14.0352ZM24.0011 25.6668C23.3418 25.6668 22.6974 25.4713 22.1492 25.1051C21.601 24.7388 21.1738 24.2182 20.9215 23.6091C20.6692 23 20.6032 22.3298 20.7318 21.6832C20.8604 21.0366 21.1779 20.4426 21.6441 19.9765C22.1102 19.5103 22.7042 19.1928 23.3508 19.0642C23.9974 18.9356 24.6676 19.0016 25.2767 19.2539C25.8858 19.5062 26.4064 19.9334 26.7727 20.4816C27.1389 21.0298 27.3344 21.6742 27.3344 22.3335C27.3344 23.2175 26.9832 24.0654 26.3581 24.6905C25.733 25.3156 24.8851 25.6668 24.0011 25.6668Z" fill="white"/>
</g>
<defs>
<clipPath id="clip0_528_46893">
<rect width="20" height="20" fill="white" transform="translate(14 14)"/>
</clipPath>
</defs>
</svg>
